<svg width="33" height="33" viewBox="0 0 33 33" fill="none" xmlns="http://www.w3.org/2000/svg">
<path d="M32.6725 3.00428C32.6725 2.28568 32.387 1.59652 31.8789 1.08839C31.3708 0.580267 30.6816 0.294807 29.963 0.294807L8.2872 0.159332C7.5686 0.159332 6.87944 0.444794 6.37131 0.952919C5.86319 1.46104 5.57773 2.15021 5.57773 2.86881C5.57773 3.5874 5.86319 4.27657 6.37131 4.78469C6.87944 5.29282 7.5686 5.57828 8.2872 5.57828H23.3519L0.944524 28.0398C0.69057 28.2917 0.489001 28.5914 0.351444 28.9215C0.213888 29.2517 0.143066 29.6059 0.143066 29.9636C0.143066 30.3212 0.213888 30.6754 0.351444 31.0056C0.489001 31.3357 0.69057 31.6354 0.944524 31.8873C1.19641 32.1412 1.49608 32.3428 1.82625 32.4804C2.15642 32.6179 2.51057 32.6887 2.86825 32.6887C3.22593 32.6887 3.58008 32.6179 3.91025 32.4804C4.24043 32.3428 4.5401 32.1412 4.79198 31.8873L27.2535 9.42573V24.5446C27.2535 25.2632 27.539 25.9524 28.0471 26.4605C28.5552 26.9686 29.2444 27.2541 29.963 27.2541C30.6816 27.2541 31.3708 26.9686 31.8789 26.4605C32.387 25.9524 32.6725 25.2632 32.6725 24.5446V3.00428Z" fill="white"/>
</svg>
