<svg width="50" height="50" viewBox="0 0 50 50" fill="none" xmlns="http://www.w3.org/2000/svg">
<path d="M25.0002 2.08333C18.9865 2.02222 13.1947 4.35126 8.89752 8.55859C4.60034 12.7659 2.14945 18.5073 2.0835 24.5208C2.10667 29.2733 3.63546 33.8961 6.45029 37.7253C9.26512 41.5545 13.2212 44.3931 17.7502 45.8333C18.896 46.0417 19.3127 45.3542 19.3127 44.75C19.3127 44.1458 19.3127 42.8125 19.3127 40.9375C12.9377 42.2917 11.5835 37.9375 11.5835 37.9375C11.1591 36.5706 10.2569 35.4022 9.04183 34.6458C6.9585 33.2708 9.2085 33.2917 9.2085 33.2917C9.9286 33.3879 10.6176 33.646 11.2237 34.0465C11.8299 34.447 12.3375 34.9795 12.7085 35.6042C13.355 36.7253 14.4159 37.5477 15.6627 37.8945C16.9095 38.2412 18.2426 38.0846 19.3752 37.4583C19.4916 36.3175 20.0083 35.2547 20.8335 34.4583C15.7502 33.8958 10.4168 31.9792 10.4168 23.375C10.3714 21.1306 11.2007 18.9565 12.7293 17.3125C12.0331 15.3856 12.1153 13.2631 12.9585 11.3958C12.9585 11.3958 14.896 10.7917 19.2085 13.6875C22.9624 12.6872 26.9129 12.6872 30.6668 13.6875C35.0418 10.7917 36.9168 11.3958 36.9168 11.3958C37.76 13.2631 37.8422 15.3856 37.146 17.3125C38.7102 18.9263 39.5844 21.0859 39.5835 23.3333C39.5835 31.9583 34.2085 33.8542 29.1668 34.4167C29.7189 34.9526 30.1453 35.6043 30.4155 36.3247C30.6856 37.0452 30.7928 37.8165 30.7293 38.5833V44.7292C30.7293 44.7292 31.146 46.0417 32.2918 45.8125C36.808 44.3633 40.7507 41.5241 43.5568 37.7003C46.3629 33.8765 47.8889 29.2637 47.9168 24.5208C47.8509 18.5073 45.4 12.7659 41.1028 8.55859C36.8056 4.35126 31.0138 2.02222 25.0002 2.08333Z" fill="#231F20"/>
</svg>
